# xmcd CD database file
#
# Track frame offsets:
#	150
#	16650
#	29437
#	48377
#	64540
#	88965
#	106007
#	125455
#	135222
#	154542
#	173670
#	188202
#	204090
#	219230
#	232675
#	250142
#	269662
#	287120
#	304197
#	322675
#
# Disc length: 4541 seconds
#
# Revision: 0
# Processed by: cddbd v1.5.1PL2 Copyright (c) Steve Scherf et al.
# Submitted via: CDex 1.51
#
DISCID=fc11bb14
DTITLE=Various Artist - L'Art D'Écouter Vol.3
DYEAR=1991
DGENRE=Francais
TTITLE0=Stéphane Eicher  - déjeuner en paix
TTITLE1=Le chat  -  Pow Wow
TTITLE2=Pascale Petitjean  -  baby b
TTITLE3=Véronique Rivière  -  Michael
TTITLE4=Mylène Farmer  -  beyond my control
TTITLE5=François Feldman  -  poison rose
TTITLE6=Maurane  -  mentir
TTITLE7=MAxime Le Forestier  -  sagesse du fou
TTITLE8=Claudia Phillips  -  donne-moi du feu
TTITLE9=Bernard Lavilliers  -  fait divers
TTITLE10=Mc Solaar  -  bouge de là
TTITLE11=Alain Lanty  -  vous voudriez vivre à ma place
TTITLE12=Khaled  -  Did
TTITLE13=Bashung  -  osez Joséphine
TTITLE14=Martin Destrée  -  Black est beau
TTITLE15=Axel Bauer  -  éteins la lumière
TTITLE16=Lio  -  c'est ma chance
TTITLE17=L'Affaire Louis Trio  -  nous on a tout
TTITLE18=Viktor Lazlo   -  teach me to dance
TTITLE19=Jane Birkin  -  je suis venu te dire que je m'en vais
EXTD=YEAR: 1991
EXTT0=
EXTT1=
EXTT2=
EXTT3=
EXTT4=
EXTT5=
EXTT6=
EXTT7=
EXTT8=
EXTT9=
EXTT10=
EXTT11=
EXTT12=
EXTT13=
EXTT14=
EXTT15=
EXTT16=
EXTT17=
EXTT18=
EXTT19=
PLAYORDER=
